HIERARCHY
ROOT Hips
{
  OFFSET 0 0 0
  CHANNELS 6 Xposition Yposition Zposition Zrotation Yrotation Xrotation
  JOINT LeftThigh
  {
    OFFSET 8.409438 0 -5.917753
    CHANNELS 3 Zrotation Yrotation Xrotation
    JOINT LeftLeg
    {
      OFFSET 0 0 -42.358652
      CHANNELS 3 Zrotation Yrotation Xrotation
      JOINT LeftFoot
      {
        OFFSET 0 0 -39.357303
        CHANNELS 3 Zrotation Yrotation Xrotation
      }
    }
  }
  JOINT RightThigh
  {
    OFFSET -8.409438 0 -5.917753
    CHANNELS 3 Zrotation Yrotation Xrotation
    JOINT RightLeg
    {
      OFFSET 0 0 -42.358652
      CHANNELS 3 Zrotation Yrotation Xrotation
      JOINT RightFoot
      {
        OFFSET 0 0 -39.357303
        CHANNELS 3 Zrotation Yrotation Xrotation
      }
    }
  }
  JOINT SpineLow
  {
    OFFSET 0 0 4.719101
    CHANNELS 3 Zrotation Yrotation Xrotation
    JOINT SpineMid
    {
      OFFSET 0 0 12.899191
      CHANNELS 3 Zrotation Yrotation Xrotation
      JOINT Chest
      {
        OFFSET 0 0 12.899191
        CHANNELS 3 Zrotation Yrotation Xrotation
        JOINT LeftShoulder
        {
          OFFSET 7.550562 1.41573 9.438202
          CHANNELS 3 Zrotation Yrotation Xrotation
          JOINT LeftArm
          {
            OFFSET 9.155056 0 4.247191
            CHANNELS 3 Zrotation Yrotation Xrotation
            JOINT LeftForearm
            {
              OFFSET 0 0 25.771955
              CHANNELS 3 Zrotation Yrotation Xrotation
              JOINT LeftHand
              {
                OFFSET 0 0 25.197169
                CHANNELS 3 Zrotation Yrotation Xrotation
              }
            }
          }
        }
        JOINT RightShoulder
        {
          OFFSET -7.550562 1.41573 9.438202
          CHANNELS 3 Zrotation Yrotation Xrotation
          JOINT RightArm
          {
            OFFSET -9.155056 0 4.247191
            CHANNELS 3 Zrotation Yrotation Xrotation
            JOINT RightForearm
            {
              OFFSET 0 0 -25.771955
              CHANNELS 3 Zrotation Yrotation Xrotation
              JOINT RightHand
              {
                OFFSET 0 0 -25.197169
                CHANNELS 3 Zrotation Yrotation Xrotation
              }
            }
          }
        }
        JOINT Neck
        {
          OFFSET 0 0 15.101124
          CHANNELS 3 Zrotation Yrotation Xrotation
          JOINT Head
          {
            OFFSET 0 0 11.325843
            CHANNELS 3 Zrotation Yrotation Xrotation
            End Site
            {
              OFFSET 0 0 14.157303
            }
          }
        }
      }
    }
  }
}
MOTION
Frames: 14
Frame Time: 0.0
0.0  93.25843  0.0  -2.515027  7.792209  -117.375101  16.353824  -12.817359  7.035092  -12.386165  1.129091  14.947604  1.102241  -0.619083  1.886382  17.687628  -30.113146  -92.139205  21.743411  34.756828  71.211538  3.958224  3.863851  1.065401  0.368154  -2.314976  1.519428  0.862518  -6.34791  4.129478  0.862518  -6.347909  4.129478  -13.608185  32.306453  16.437202  112.524152  43.787098  -163.221156  -31.776706  14.892412  78.277788  57.779633  -18.117259  11.807558  7.451142  -8.197916  35.695376  39.252697  72.39965  -10.912029  -33.475172  -27.701736  -90.918833  49.159097  -9.336663  -26.03287  -3.972948  7.902971  18.825323  -3.223526  5.811843  14.148767  
0.0  93.25843  0.0  -2.638553  7.900013  -117.513628  15.742762  -12.81411  7.232231  -11.961383  1.026228  14.959831  1.088692  -0.736676  1.914896  18.40528  -30.863393  -92.71726  17.888761  33.227344  60.597415  3.741369  3.466693  0.903376  0.362449  -2.329751  1.492098  0.84864  -6.387617  4.055037  0.84864  -6.387618  4.055037  -13.529492  32.418937  16.527508  112.755007  43.858871  -163.143632  -32.533539  15.727369  78.016412  58.09559  -17.64641  11.591322  7.302973  -8.179282  35.908051  38.552763  72.436683  -11.334517  -33.527862  -27.585859  -91.041928  49.091398  -9.31113  -25.919997  -4.010019  8.058616  19.156876  -3.26055  5.925647  14.39766  
0.0  93.25843  0.0  -2.739601  7.897968  -117.380784  15.246323  -12.746569  7.284648  -12.146961  1.158888  14.600045  1.303285  -0.861837  1.966666  19.066628  -31.962297  -92.344104  14.669327  30.830838  49.206183  3.077542  3.182761  0.904341  0.391572  -2.337086  1.46521  0.930627  -6.409096  3.97845  0.930627  -6.409096  3.978449  -13.659768  32.359977  16.391959  113.085425  43.908227  -163.060465  -33.278536  16.620946  77.751181  58.564365  -17.091044  11.385189  7.348369  -8.430352  36.081777  37.036599  72.694265  -12.417883  -33.63985  -27.750565  -91.216206  49.09036  -9.521474  -25.727785  -4.048762  8.14416  19.324331  -3.294537  5.987692  14.523634  
0.0  93.25843  0.0  -2.842166  7.828063  -117.16216  14.643995  -12.647626  7.137227  -11.831185  1.162598  14.519474  1.330203  -1.023707  2.017163  19.27481  -33.016188  -90.874515  11.599759  27.786198  37.235807  2.585016  3.259167  0.889108  0.407208  -2.341696  1.44465  0.975214  -6.422356  3.92053  0.975214  -6.422356  3.920531  -13.664123  32.22038  16.321715  113.253149  44.000889  -163.018255  -34.145612  17.407987  77.381537  59.064794  -16.496609  11.253609  7.285866  -8.57567  35.929888  36.450449  72.828848  -12.889817  -33.493387  -28.038489  -91.250251  48.933433  -9.571775  -25.600669  -4.007147  8.200549  19.364754  -3.265654  6.031112  14.553361  
0.0  93.25843  0.0  -3.054675  7.770222  -116.910862  14.400114  -12.908574  6.890771  -11.839018  1.358534  14.396398  1.495719  -1.226319  2.103236  18.950756  -33.197259  -88.905439  7.949538  24.625283  25.620044  2.74929  3.379552  1.526611  0.403708  -2.352699  1.43239  0.966191  -6.452051  3.887184  0.966191  -6.452051  3.887184  -13.83582  32.018145  16.187352  113.52223  44.096587  -162.912246  -35.129877  17.941509  76.820246  59.391245  -15.920069  11.386709  7.559372  -8.897873  35.901995  35.145859  73.044146  -14.00105  -33.269376  -28.485512  -91.305815  48.902493  -9.609235  -25.404199  -3.85449  8.228924  19.332497  -3.151654  6.057413  14.527105  
0.0  93.25843  0.0  -3.288892  8.123807  -116.573301  13.607602  -12.681477  6.501591  -11.437587  1.369515  14.494372  1.676483  -1.509038  2.197946  17.79081  -31.764024  -86.999701  3.476584  21.345957  15.899554  2.637136  3.648649  2.239023  0.332718  -2.360503  1.392971  0.775087  -6.468819  3.786058  0.775087  -6.468819  3.786058  -13.807226  31.970168  16.284746  113.524383  44.220872  -162.939008  -35.927684  18.39919  76.357555  59.765761  -15.474472  11.549549  7.574255  -8.885997  35.682874  34.8548  73.100389  -14.341717  -33.086983  -28.786174  -91.32803  48.742765  -9.69746  -25.378636  -3.74564  8.286074  19.261446  -3.070839  6.10414  14.472402  
0.0  93.25843  0.0  -3.633773  8.578593  -116.241259  13.14389  -12.690904  6.064666  -11.013952  1.35787  14.652321  1.796428  -1.775948  2.339847  16.253623  -28.578639  -85.947254  -1.23304  18.577569  9.816211  2.896561  2.239793  1.075323  0.260902  -2.3691  1.33401  0.583619  -6.487779  3.63147  0.583619  -6.487779  3.631471  -13.859754  31.905206  16.506058  113.393001  44.342776  -163.064473  -36.867881  18.607364  75.737346  59.986999  -15.128943  12.145897  7.320158  -8.752201  35.304695  34.524017  73.055419  -14.665385  -32.544415  -29.334265  -91.567775  48.736013  -9.72502  -25.352959  -3.578372  8.355158  19.348275  -2.948835  6.160822  14.535059  
0.0  93.25843  0.0  -3.94974  9.133287  -115.968344  12.99051  -12.600834  5.558024  -10.760267  1.242903  14.952359  1.566276  -1.964058  2.327735  15.239512  -24.145853  -86.097079  -5.82782  16.03782  6.063983  4.539375  0.929346  0.6921  0.221485  -2.377603  1.262754  0.482192  -6.508437  3.440008  0.482192  -6.508437  3.440008  -14.124207  31.903523  16.731598  113.079466  44.449616  -163.347319  -37.471973  18.958801  75.331268  60.395075  -14.953963  12.559026  7.02055  -8.678364  34.993755  34.679389  72.854256  -14.451097  -32.327463  -29.464292  -91.800184  48.577557  -9.786725  -25.368981  -3.759103  8.308863  19.391134  -3.083465  6.120132  14.569689  
0.0  93.25843  0.0  -4.092947  9.335317  -115.775032  13.626017  -12.689902  5.03366  -10.759544  1.104383  15.363256  1.09442  -2.027052  2.258004  15.56144  -20.119366  -86.487909  -8.311682  14.637711  4.76391  4.00884  0.748508  0.780974  0.268321  -2.372704  1.19299  0.617714  -6.49692  3.24412  0.617714  -6.496919  3.24412  -14.419682  31.791855  16.907994  113.163391  44.431086  -163.697253  -37.518187  19.436665  75.200318  60.738947  -14.921441  12.982474  6.438402  -8.540373  34.568979  35.242805  72.483822  -13.862028  -31.839369  -29.930123  -92.378534  48.48226  -9.846697  -25.212061  -3.885442  8.213077  19.600974  -3.17811  6.043031  14.728545  
0.0  93.25843  0.0  -3.96113  9.260693  -115.660092  14.778917  -12.907414  4.776249  -11.15606  1.199842  15.629313  0.420639  -2.005423  2.109521  15.241468  -16.964639  -86.011504  -11.164003  13.568945  4.636072  2.289659  1.118287  0.852392  0.405757  -2.343309  1.161242  0.998901  -6.422841  3.143748  0.998901  -6.42284  3.143748  -14.90128  31.581018  16.852723  112.915541  44.452931  -164.038158  -37.732108  19.596414  74.982555  60.962163  -14.926165  13.297838  5.963951  -8.623826  34.134609  35.477111  72.12395  -13.438959  -31.367323  -30.292574  -93.002068  48.242546  -9.835932  -25.046552  -4.321856  8.048674  19.602295  -3.500115  5.905628  14.735422  
0.0  93.25843  0.0  -3.646291  9.08814  -115.63602  15.634606  -13.09346  4.723146  -11.659185  1.588656  15.836196  -0.732057  -1.790658  1.576475  16.105276  -16.539778  -86.864909  -13.163792  15.411921  6.981518  1.224986  1.462559  1.10366  0.554938  -2.292255  1.160556  1.410127  -6.290326  3.128051  1.410127  -6.290326  3.128051  -15.551851  31.406894  16.434529  112.556425  44.463406  -164.376399  -38.18366  19.448397  74.643779  60.984376  -14.892415  13.430678  5.276688  -8.506387  33.605688  36.025128  71.794228  -13.069221  -30.791887  -30.764451  -93.689772  47.991259  -9.790186  -24.829607  -4.677995  7.891715  19.501653  -3.760836  5.777084  14.664641  
0.0  93.25843  0.0  -3.339801  8.963276  -115.794743  15.8022  -13.217425  4.849051  -12.051641  2.215271  16.040742  -0.776138  -1.753973  1.586297  16.730059  -20.884696  -87.40527  -11.223737  18.41389  10.818603  1.763702  2.208536  1.969309  0.647879  -2.259135  1.200884  1.662475  -6.205127  3.230311  1.662475  -6.205127  3.230311  -15.772504  31.255276  16.009949  112.578276  44.395306  -164.619295  -38.229834  19.310754  74.556387  60.761324  -14.835277  13.482867  5.057079  -8.646425  33.342671  36.512159  71.878397  -12.684519  -30.550432  -30.995952  -94.192169  47.701627  -9.720356  -24.600498  -4.820081  7.860032  19.293571  -3.863577  5.750276  14.510656  
0.0  93.25843  0.0  -3.199935  8.864927  -115.733833  15.69485  -13.320198  4.693372  -12.631592  2.996581  16.134677  -0.318074  -1.769305  1.790022  16.873804  -26.435844  -87.203422  -7.362096  21.600634  15.250648  2.560482  3.057026  2.837247  0.667536  -2.175967  1.226962  1.717792  -5.979468  3.301595  1.717792  -5.979468  3.301595  -15.688164  30.672914  15.627364  112.822633  44.380475  -164.657684  -38.424704  19.168209  74.425602  60.673209  -14.690205  13.379583  5.273022  -9.292445  33.159559  37.210649  72.224515  -12.328127  -30.105933  -31.57665  -94.736432  47.837311  -9.40859  -24.081015  -4.710775  7.678749  18.963548  -3.771727  5.619884  14.261666  
0.0  93.25843  0.0  -3.100919  8.559544  -115.213748  15.423477  -13.092218  3.898165  -12.70468  3.4667  16.48512  0.11864  -1.772628  1.976646  17.235969  -32.526348  -87.027414  -1.574327  24.814056  20.27095  3.264215  4.048189  3.203738  0.715665  -2.178156  1.18785  1.853115  -5.98677  3.189983  1.853115  -5.98677  3.189983  -15.893122  30.565589  15.200104  113.353753  44.478939  -164.501629  -38.943599  18.999349  74.074645  60.666287  -14.469926  13.311554  5.272323  -9.391611  33.0175  38.082015  72.652184  -11.965837  -30.017408  -31.950462  -95.106239  47.534472  -9.420154  -23.768861  -4.5362  7.715002  18.667831  -3.638049  5.654494  14.037999  
